<?xml version="1.0" encoding="utf-8"?><!-- Uploaded to: SVG Repo, www.svgrepo.com, Generator: SVG Repo Mixer Tools -->
<svg version="1.1" id="Uploaded to svgrepo.com" xmlns="http://www.w3.org/2000/svg" xmlns:xlink="http://www.w3.org/1999/xlink" 
	 width="800px" height="800px" viewBox="0 0 32 32" xml:space="preserve">
<style type="text/css">
	.stone_een{fill:#0B1719;}
</style>
<path class="stone_een" d="M23.95,11.386l-3.594-4.614C19.977,6.285,19.394,6,18.777,6h-5.554c-0.617,0-1.2,0.285-1.579,0.772
	L8.05,11.386c0.249,3.691,2.025,6.769,4.95,8.013v-0.001C13.911,19.784,14.916,20,16,20s2.089-0.216,3-0.603v0.001
	C21.925,18.155,23.7,15.077,23.95,11.386z M13,14c-0.552,0-1-0.448-1-1c0-0.552,0.448-1,1-1s1,0.448,1,1C14,13.552,13.552,14,13,14z
	 M19,14c-0.552,0-1-0.448-1-1c0-0.552,0.448-1,1-1s1,0.448,1,1C20,13.552,19.552,14,19,14z M8,9.822V5c0-2.209,1.791-4,4-4h8
	c2.209,0,4,1.791,4,4v4.822l-2.855-3.664C20.577,5.427,19.703,5,18.777,5h-5.555c-0.926,0-1.8,0.427-2.368,1.158L8,9.822z
	 M27.713,28.575l-0.338-1.555c-0.271-1.487-1.336-2.68-2.754-3.104l-4.736-1.726l-0.86,0.744c-0.841,0.731-1.921,1.135-3.041,1.135
	c-1.116,0-2.192-0.401-3.031-1.131l-0.852-0.736l-4.69,1.704c-1.447,0.435-2.515,1.628-2.785,3.116L4.33,28.642
	C4.106,29.87,5.049,31,6.297,31h19.461C27.034,31,27.984,29.822,27.713,28.575z M24,28c0,0.552-0.448,1-1,1h-3c-0.552,0-1-0.448-1-1
	v-1c0-0.552,0.448-1,1-1h3c0.552,0,1,0.448,1,1V28z M16,21c1.073,0,2.076-0.185,3-0.519v1.152l-0.63,0.546
	c-1.318,1.145-3.444,1.148-4.761,0.004L13,21.657v-1.175C13.924,20.815,14.927,21,16,21z M20,27h3v1h-3V27z"/>
</svg>